<svg xmlns="http://www.w3.org/2000/svg" xmlns:xlink="http://www.w3.org/1999/xlink" width="2000" zoomAndPan="magnify" viewBox="0 0 1500 1499.999933" height="2000" preserveAspectRatio="xMidYMid meet" version="1.0"><defs><g/></defs><rect x="-150" width="1800" fill="#ffffff" y="-149.999993" height="1799.99992" fill-opacity="1"/><rect x="-150" width="1800" fill="#007a33" y="-149.999993" height="1799.99992" fill-opacity="1"/><g fill="#ffffff" fill-opacity="1"><g transform="translate(123.888435, 689.999921)"><g><path d="M 234 -420 C 274.800781 -420 305.597656 -411 326.390625 -393 C 347.191406 -375 357.59375 -348.800781 357.59375 -314.40625 C 357.59375 -295.601562 353.09375 -278.800781 344.09375 -264 C 335.09375 -249.195312 321.796875 -237.597656 304.203125 -229.203125 C 317.398438 -224.796875 329.695312 -218.09375 341.09375 -209.09375 C 352.5 -200.09375 361.800781 -188.59375 369 -174.59375 C 376.195312 -160.59375 379.796875 -143.59375 379.796875 -123.59375 C 379.796875 -99.195312 375.59375 -79 367.1875 -63 C 358.789062 -47 347.789062 -34.398438 334.1875 -25.203125 C 320.59375 -16.003906 305.59375 -9.503906 289.1875 -5.703125 C 272.789062 -1.898438 256.394531 0 240 0 L 58.796875 0 L 58.796875 -420 Z M 223.203125 -357.59375 L 123.59375 -357.59375 L 123.59375 -246 L 230.40625 -246 C 246.800781 -246.394531 261.296875 -251.394531 273.890625 -261 C 286.492188 -270.601562 292.796875 -284.203125 292.796875 -301.796875 C 292.796875 -321.796875 286.09375 -336.09375 272.6875 -344.6875 C 259.289062 -353.289062 242.796875 -357.59375 223.203125 -357.59375 Z M 233.40625 -183.59375 L 123.59375 -183.59375 L 123.59375 -62.40625 L 236.40625 -62.40625 C 259.195312 -62.40625 277.789062 -67.503906 292.1875 -77.703125 C 306.59375 -87.898438 313.796875 -103.597656 313.796875 -124.796875 C 313.796875 -139.992188 309.59375 -151.789062 301.1875 -160.1875 C 292.789062 -168.59375 282.492188 -174.59375 270.296875 -178.1875 C 258.097656 -181.789062 245.800781 -183.59375 233.40625 -183.59375 Z M 233.40625 -183.59375 "/></g></g></g><g fill="#ffffff" fill-opacity="1"><g transform="translate(532.487702, 689.999921)"><g><path d="M 440.40625 -210 C 440.40625 -179.601562 435.40625 -151.300781 425.40625 -125.09375 C 415.40625 -98.894531 401.101562 -75.992188 382.5 -56.390625 C 363.894531 -36.796875 342.09375 -21.5 317.09375 -10.5 C 292.09375 0.5 264.59375 6 234.59375 6 C 204.59375 6 176.992188 0.5 151.796875 -10.5 C 126.597656 -21.5 104.796875 -36.796875 86.390625 -56.390625 C 67.992188 -75.992188 53.796875 -98.894531 43.796875 -125.09375 C 33.796875 -151.300781 28.796875 -179.601562 28.796875 -210 C 28.796875 -240.394531 33.796875 -268.691406 43.796875 -294.890625 C 53.796875 -321.097656 67.992188 -344 86.390625 -363.59375 C 104.796875 -383.195312 126.597656 -398.5 151.796875 -409.5 C 176.992188 -420.5 204.59375 -426 234.59375 -426 C 264.59375 -426 292.09375 -420.5 317.09375 -409.5 C 342.09375 -398.5 363.894531 -383.195312 382.5 -363.59375 C 401.101562 -344 415.40625 -321.097656 425.40625 -294.890625 C 435.40625 -268.691406 440.40625 -240.394531 440.40625 -210 Z M 374.40625 -210 C 374.40625 -239.195312 368.40625 -265.296875 356.40625 -288.296875 C 344.40625 -311.296875 327.90625 -329.492188 306.90625 -342.890625 C 285.90625 -356.296875 261.800781 -363 234.59375 -363 C 207 -363 182.703125 -356.296875 161.703125 -342.890625 C 140.703125 -329.492188 124.300781 -311.296875 112.5 -288.296875 C 100.695312 -265.296875 94.796875 -239.195312 94.796875 -210 C 94.796875 -180.800781 100.695312 -154.703125 112.5 -131.703125 C 124.300781 -108.703125 140.703125 -90.5 161.703125 -77.09375 C 182.703125 -63.695312 207 -57 234.59375 -57 C 261.800781 -57 285.90625 -63.695312 306.90625 -77.09375 C 327.90625 -90.5 344.40625 -108.800781 356.40625 -132 C 368.40625 -155.195312 374.40625 -181.195312 374.40625 -210 Z M 374.40625 -210 "/></g></g></g><g fill="#ffffff" fill-opacity="1"><g transform="translate(1001.686822, 689.999921)"><g><path d="M 74.40625 -126.59375 C 90.800781 -103 107.898438 -84.703125 125.703125 -71.703125 C 143.503906 -58.703125 166.601562 -52.203125 195 -52.203125 C 208.601562 -52.203125 221.601562 -54.398438 234 -58.796875 C 246.394531 -63.203125 256.59375 -69.601562 264.59375 -78 C 272.59375 -86.394531 276.59375 -96.394531 276.59375 -108 C 276.59375 -128 268.09375 -143.597656 251.09375 -154.796875 C 234.09375 -165.992188 210.195312 -174.59375 179.40625 -180.59375 C 140.195312 -188.59375 108.992188 -202.492188 85.796875 -222.296875 C 62.597656 -242.097656 51 -270.800781 51 -308.40625 C 51 -332.40625 57.695312 -353.203125 71.09375 -370.796875 C 84.5 -388.398438 102.203125 -402 124.203125 -411.59375 C 146.203125 -421.195312 170 -426 195.59375 -426 C 228.800781 -426 257.40625 -419.597656 281.40625 -406.796875 C 305.40625 -393.992188 324.203125 -375.796875 337.796875 -352.203125 L 292.203125 -307.203125 C 281.398438 -325.203125 267.796875 -339.800781 251.390625 -351 C 234.992188 -362.195312 215.796875 -367.796875 193.796875 -367.796875 C 171.796875 -367.796875 153.296875 -362.695312 138.296875 -352.5 C 123.296875 -342.300781 115.796875 -328.203125 115.796875 -310.203125 C 115.796875 -289.796875 123.695312 -274.894531 139.5 -265.5 C 155.300781 -256.101562 176.203125 -248.601562 202.203125 -243 C 225.796875 -238.195312 248.191406 -230.796875 269.390625 -220.796875 C 290.597656 -210.796875 307.898438 -197.894531 321.296875 -182.09375 C 334.703125 -166.300781 341.40625 -147.203125 341.40625 -124.796875 C 341.40625 -84.796875 327.800781 -52.992188 300.59375 -29.390625 C 273.394531 -5.796875 236 6 188.40625 6 C 156 6 126.492188 -0.398438 99.890625 -13.203125 C 73.296875 -26.003906 50 -46.800781 30 -75.59375 Z M 74.40625 -126.59375 "/></g></g></g><g fill="#ffffff" fill-opacity="1"><g transform="translate(166.790775, 1259.999871)"><g><path d="M 246 -423.59375 C 270 -423.59375 292.195312 -420.191406 312.59375 -413.390625 C 333 -406.597656 351 -397.800781 366.59375 -387 C 382.195312 -376.195312 394.398438 -364.597656 403.203125 -352.203125 L 361.203125 -308.40625 C 345.203125 -323.601562 327.597656 -336.097656 308.390625 -345.890625 C 289.191406 -355.691406 268.394531 -360.59375 246 -360.59375 C 217.601562 -360.59375 191.90625 -353.992188 168.90625 -340.796875 C 145.90625 -327.597656 127.800781 -309.695312 114.59375 -287.09375 C 101.394531 -264.5 94.796875 -238.800781 94.796875 -210 C 94.796875 -181.601562 101.796875 -155.800781 115.796875 -132.59375 C 129.796875 -109.394531 148.492188 -90.992188 171.890625 -77.390625 C 195.296875 -63.796875 220.800781 -57 248.40625 -57 C 268.40625 -57 287.203125 -60.898438 304.796875 -68.703125 C 322.398438 -76.503906 336.703125 -87.203125 347.703125 -100.796875 C 358.703125 -114.398438 364.203125 -130 364.203125 -147.59375 C 364.203125 -149.59375 364.203125 -150.796875 364.203125 -151.203125 L 244.796875 -151.203125 L 244.796875 -215.40625 L 430.796875 -215.40625 C 431.597656 -209.40625 432.296875 -203.40625 432.890625 -197.40625 C 433.492188 -191.40625 433.796875 -185.40625 433.796875 -179.40625 C 433.796875 -157.40625 430.492188 -135.800781 423.890625 -114.59375 C 417.296875 -93.394531 407 -75 393 -59.40625 C 377 -39.40625 356.296875 -23.503906 330.890625 -11.703125 C 305.492188 0.0976562 277.394531 6 246.59375 6 C 216.195312 6 187.796875 0.5 161.390625 -10.5 C 134.992188 -21.5 111.796875 -36.796875 91.796875 -56.390625 C 71.796875 -75.992188 56.296875 -98.894531 45.296875 -125.09375 C 34.296875 -151.300781 28.796875 -179.601562 28.796875 -210 C 28.796875 -240.394531 34.296875 -268.492188 45.296875 -294.296875 C 56.296875 -320.097656 71.695312 -342.695312 91.5 -362.09375 C 111.300781 -381.5 134.398438 -396.597656 160.796875 -407.390625 C 187.203125 -418.191406 215.601562 -423.59375 246 -423.59375 Z M 246 -423.59375 "/></g></g></g><g fill="#ffffff" fill-opacity="1"><g transform="translate(626.389903, 1259.999871)"><g><path d="M 336 0 L 296.40625 -104.40625 L 120.59375 -104.40625 L 81 0 L 15 0 L 177.59375 -420 L 243.59375 -420 L 405 0 Z M 176.40625 -250.796875 L 144.59375 -166.796875 L 273 -166.796875 L 240 -253.203125 C 234.800781 -267.203125 229.597656 -282.300781 224.390625 -298.5 C 219.191406 -314.695312 213.992188 -331 208.796875 -347.40625 C 203.203125 -330.601562 197.703125 -313.800781 192.296875 -297 C 186.898438 -280.195312 181.601562 -264.796875 176.40625 -250.796875 Z M 176.40625 -250.796875 "/></g></g></g><g fill="#ffffff" fill-opacity="1"><g transform="translate(1046.389177, 1259.999871)"><g><path d="M 243.59375 0 L 43.203125 0 L 43.203125 -60 L 111 -60 L 111 -360 L 43.203125 -360 L 43.203125 -420 L 243.59375 -420 L 243.59375 -360 L 175.796875 -360 L 175.796875 -60 L 243.59375 -60 Z M 243.59375 0 "/></g></g></g></svg>