<?xml version="1.0" encoding="utf-8"?>
<!-- Generator: Adobe Illustrator 24.3.0, SVG Export Plug-In . SVG Version: 6.00 Build 0)  -->
<svg version="1.1" id="Layer_1" xmlns="http://www.w3.org/2000/svg" xmlns:xlink="http://www.w3.org/1999/xlink" x="0px" y="0px"
	 viewBox="0 0 123.17 26.44" style="enable-background:new 0 0 123.17 26.44;" xml:space="preserve">
<style type="text/css">
	.st0{fill:#FFC82D;}
	.st1{fill:#2D2E2D;}
	.st2{fill:#243D80;}
	.st3{fill:#0284A1;}
	.st4{fill:#FDBA12;}
	.st5{fill:#037B3E;}
	.st6{fill:#E81C37;}
	.st7{fill:#44B6E5;}
	.st8{fill:#FFCE06;}
	.st9{fill:#0D96D4;}
	.st10{fill:#EF404B;}
	.st11{fill:#044C55;}
	.st12{fill:#61A644;}
	.st13{fill:#F3B441;}
	.st14{fill:#CF3F82;}
	.st15{fill:#176533;}
	.st16{fill:#74AADB;}
	.st17{fill:#CA4C9B;}
	.st18{fill:#008FBD;}
	.st19{fill:#E2943B;}
	.st20{fill:#4FB848;}
	.st21{fill:#214391;}
	.st22{fill:#BE5927;}
	.st23{fill:#2B2E81;}
	.st24{fill:#FFCE07;}
	.st25{fill:#247C9D;}
	.st26{fill:#A51D47;}
	.st27{fill:#C7A633;}
	.st28{fill:#D92D27;}
	.st29{fill:#B32025;}
	.st30{fill:#FFCD05;}
	.st31{fill:#FECC07;}
	.st32{fill:#EE2524;}
	.st33{fill:#49AEC8;}
	.st34{fill:#0C7874;}
	.st35{fill:#CF284A;}
	.st36{fill:#FDDE02;}
	.st37{fill:#C11F4C;}
	.st38{fill:#059948;}
	.st39{fill:#EC2B3A;}
	.st40{fill:#4CBD92;}
	.st41{fill:#00619C;}
	.st42{fill:#CFB539;}
	.st43{fill:#00A54F;}
	.st44{fill:#FFD241;}
	.st45{fill:#D42227;}
	.st46{fill:#00B492;}
	.st47{fill:#0C8140;}
	.st48{fill:#306EB6;}
	.st49{fill:#33B452;}
	.st50{fill:#8A1739;}
	.st51{fill:#B07239;}
	.st52{fill:#F5CB3D;}
	.st53{fill:#58A2A9;}
	.st54{fill:#FED700;}
	.st55{fill:#DA2727;}
	.st56{fill:#0D4F9F;}
</style>
<g>
	<g>
		<path class="st5" d="M10.64,0.28c-2.07,0-3.75,1.52-3.75,3.37c0,0.65,0.21,1.28,0.59,1.81h0.01c0.18,0.22,0.15,0.54-0.07,0.72
			C7.4,6.21,7.37,6.22,7.35,6.24c-0.11,0.07-0.23,0.1-0.35,0.1c-0.19,0-0.37-0.08-0.49-0.22L6.45,6.05C6.19,5.69,6,5.28,5.87,4.86
			C3.88,4.94,2.29,6.42,2.29,8.23c0,0.28,0.04,0.55,0.11,0.82c0.44-0.11,0.89-0.16,1.34-0.16c0.3-0.03,0.57,0.18,0.6,0.49
			c0.03,0.3-0.18,0.57-0.49,0.6c-0.04,0-0.08,0-0.12,0c-0.5,0-1,0.09-1.47,0.27C0.89,10.78,0,11.99,0,13.35s0.9,2.58,2.29,3.11
			c0.47,0.18,0.96,0.27,1.46,0.26c0.3-0.03,0.57,0.18,0.6,0.49c0.03,0.3-0.18,0.57-0.49,0.6c-0.04,0-0.08,0-0.12,0
			c-0.43,0-0.85-0.05-1.27-0.15c-0.04,0.19-0.06,0.39-0.06,0.59c0,1.78,1.54,3.24,3.48,3.37c0.15-0.42,0.36-0.82,0.63-1.18
			c0.2-0.25,0.56-0.31,0.84-0.15c0.25,0.14,0.34,0.45,0.2,0.7c-0.01,0.02-0.03,0.04-0.04,0.06c-0.28,0.36-0.47,0.79-0.57,1.23
			c-0.05,0.22-0.07,0.44-0.07,0.66c0,1.86,1.68,3.38,3.75,3.38c1.56,0,2.96-0.88,3.51-2.19v-2.48c-0.99,0.05-1.92,0.49-2.59,1.21
			c-0.12,0.14-0.29,0.21-0.47,0.21c-0.13,0-0.26-0.04-0.37-0.12c-0.24-0.16-0.3-0.47-0.14-0.71c0.01-0.02,0.03-0.04,0.04-0.06
			c0.84-0.97,2.15-1.56,3.55-1.64V6.43c-2.02-0.27-3.66-1.4-4.19-2.95c-0.08-0.29,0.08-0.59,0.37-0.67c0.01,0,0.02-0.01,0.04-0.01
			c0.31-0.09,0.64,0.06,0.76,0.36c0.37,1.07,1.57,1.91,3.03,2.16V2.47C13.6,1.16,12.21,0.28,10.64,0.28z M10.78,17.48
			c0.01,0.03,0.02,0.07,0.03,0.1c0,0.02,0,0.03,0.01,0.05s0,0.03,0.01,0.05v0.03c0.04,0.19,0.06,0.39,0.06,0.59v0.03
			c0,0.01,0,0.02,0,0.03c0,0.02,0,0.04-0.01,0.05c0,0.01,0,0.02,0,0.03v0.03c0,0.02-0.01,0.03-0.02,0.05l0,0
			c0,0.02-0.02,0.03-0.03,0.05L10.8,18.6c-0.01,0.01-0.02,0.02-0.03,0.03l-0.03,0.03c-0.06,0.06-0.12,0.1-0.2,0.13l-0.02,0.01
			l-0.06,0.02h-0.03h-0.03c-0.02,0-0.04,0-0.06,0h-0.05h-0.03h-0.05c-0.02,0-0.04,0-0.06,0l-0.06-0.01l-0.06-0.02
			c-0.04-0.02-0.08-0.04-0.11-0.06c-0.01,0-0.02-0.01-0.03-0.02l-0.05-0.04l-0.03-0.03l-0.03-0.03l0,0
			c-0.02-0.03-0.04-0.06-0.06-0.09c-0.01-0.02-0.02-0.03-0.02-0.05c-0.01-0.03-0.02-0.06-0.03-0.09l0,0
			c-0.01-0.03-0.01-0.06-0.01-0.09v-0.03c0-0.03,0-0.06,0-0.1v-0.06c0-0.06-0.01-0.12-0.02-0.17c0-0.02-0.01-0.05-0.01-0.07
			c-0.01-0.06-0.03-0.11-0.04-0.17c0-0.03-0.02-0.06-0.03-0.09c-0.01-0.03-0.02-0.06-0.03-0.09c-0.03-0.07-0.06-0.14-0.09-0.21
			l-0.02-0.04l-0.02-0.04c-0.01-0.03-0.03-0.06-0.05-0.09v-0.01l-0.05-0.07l-0.05-0.08c-0.02-0.03-0.05-0.07-0.07-0.1
			c-0.07-0.09-0.14-0.17-0.22-0.25l-0.04-0.04c-0.02-0.02-0.04-0.04-0.06-0.06l-0.07-0.06l0,0l-0.03-0.02l-0.07-0.06l-0.05-0.04
			c-0.03-0.02-0.06-0.04-0.08-0.06c-0.07-0.05-0.15-0.1-0.23-0.16l-0.1-0.06L8.2,16.04c-0.02-0.01-0.04-0.02-0.06-0.03
			C8.13,16,8.12,15.99,8.1,15.98l-0.12-0.06c-0.13-0.06-0.27-0.11-0.41-0.16l-0.14-0.05l-0.14-0.04c-0.1-0.03-0.2-0.05-0.3-0.07
			c-0.05-0.01-0.1-0.02-0.16-0.03c-0.07-0.01-0.14-0.03-0.2-0.06c-0.08-0.04-0.14-0.09-0.19-0.16c-0.01-0.01-0.01-0.02-0.02-0.03
			c-0.01-0.02-0.02-0.03-0.03-0.05c-0.01-0.03-0.03-0.06-0.04-0.09l0,0c0-0.01-0.01-0.03-0.01-0.04l0,0c0-0.01,0-0.03,0-0.04
			c0-0.02,0-0.03,0-0.05l0,0c0-0.01,0-0.02,0-0.03c0,0,0-0.01,0-0.02l0,0c0-0.01,0-0.02,0-0.03c0-0.02,0.01-0.03,0.01-0.05
			c0-0.02,0.01-0.03,0.02-0.05c0.03-0.08,0.09-0.15,0.16-0.21l0.03-0.02c0.04-0.03,0.09-0.06,0.14-0.08l0.03-0.01
			c0.02-0.01,0.04-0.01,0.06-0.02l0.05-0.01h0.05c0.05-0.01,0.11-0.01,0.16,0c0.14,0.02,0.28,0.05,0.41,0.08l0.19,0.05l0.06,0.02
			l0.05,0.01l0.1,0.03l0.09,0.03c0.05,0.02,0.11,0.04,0.16,0.06l0.09,0.04l0.1,0.04c0.04,0.01,0.07,0.03,0.1,0.04l0.09,0.04
			c0.03,0.02,0.06,0.03,0.09,0.04c0.03,0.01,0.08,0.04,0.11,0.06c0.08,0.04,0.16,0.08,0.23,0.13l0.16,0.1l0,0l0.16,0.1
			c0.13,0.09,0.25,0.18,0.37,0.29c0.02,0.02,0.04,0.04,0.06,0.06c0.05,0.04,0.09,0.08,0.14,0.13l0.06,0.06L9.94,16
			c0.07,0.08,0.15,0.16,0.21,0.25l0.03,0.04c0.03,0.04,0.06,0.08,0.09,0.12c0.03,0.04,0.05,0.07,0.07,0.11v0.01l0.06,0.1l0,0
			l0.06,0.11l0.03,0.06c0.02,0.03,0.04,0.07,0.05,0.11c0.02,0.04,0.03,0.07,0.05,0.1c0.02,0.03,0.03,0.06,0.04,0.09
			c0.01,0.03,0.02,0.05,0.03,0.07C10.72,17.27,10.75,17.37,10.78,17.48z M10.04,7.74c0.09,0,0.18,0.02,0.26,0.05l0.03,0.01
			c0.02,0.01,0.03,0.02,0.05,0.03l0,0c0.02,0.01,0.03,0.02,0.05,0.03l0.04,0.03c0.04,0.04,0.08,0.08,0.1,0.13
			c0.01,0.01,0.02,0.03,0.03,0.05l0,0c0,0.02,0.01,0.03,0.02,0.05c0.02,0.05,0.03,0.1,0.03,0.16c0,0.38-0.06,0.76-0.18,1.12
			c-0.18,0.54-0.49,1.03-0.89,1.44c-0.06,0.06-0.12,0.12-0.18,0.17c-0.12,0.1-0.24,0.2-0.36,0.29c-0.02,0.01-0.04,0.03-0.06,0.04
			c-0.04,0.03-0.07,0.05-0.11,0.07c-0.07,0.05-0.14,0.09-0.22,0.13l-0.08,0.04c-0.1,0.06-0.2,0.11-0.32,0.16l-0.16,0.07
			c-0.03,0.01-0.05,0.02-0.08,0.03c-0.05,0.02-0.11,0.04-0.17,0.06C7.7,11.96,7.55,12,7.4,12.03H7.37H7.33c-0.02,0-0.05,0-0.07,0
			c-0.07,0-0.13-0.01-0.2-0.03C7,11.99,6.94,11.96,6.88,11.92c-0.03-0.02-0.05-0.04-0.07-0.06l-0.03-0.03
			c-0.03-0.04-0.06-0.07-0.08-0.12c-0.01-0.03-0.03-0.06-0.03-0.09c-0.05-0.18,0.01-0.37,0.14-0.5c0.01-0.01,0.02-0.02,0.03-0.03
			c0.02-0.02,0.05-0.04,0.08-0.06C6.98,11,7.04,10.98,7.1,10.96c0.71-0.15,1.34-0.55,1.79-1.12c0.02-0.03,0.05-0.06,0.07-0.09
			L8.99,9.7c0.03-0.05,0.06-0.1,0.09-0.15l0,0c0.03-0.05,0.06-0.1,0.08-0.16c0.03-0.06,0.05-0.1,0.07-0.16
			c0.01-0.02,0.02-0.05,0.03-0.07c0-0.01,0.01-0.02,0.01-0.03L9.3,9.06c0-0.01,0-0.02,0.01-0.03c0.01-0.01,0.01-0.05,0.02-0.07
			c0.06-0.23,0.1-0.46,0.1-0.69c0-0.06,0.01-0.13,0.04-0.19l0,0C9.48,8.05,9.49,8.03,9.5,8.01l0,0c0.03-0.05,0.08-0.1,0.13-0.14
			C9.67,7.83,9.72,7.8,9.77,7.77l0.05-0.02C9.89,7.74,9.97,7.73,10.04,7.74z"/>
	</g>
	<g>
		<path class="st5" d="M15.6,19.1h5.32c0.19,0,0.35-0.16,0.35-0.35V7.59c0-0.19-0.16-0.35-0.35-0.35H15.6v0.74h4.91v10.38H15.6
			L15.6,19.1z"/>
	</g>
	<g>
		<path class="st5" d="M19.91,16.53V9.8c0-0.66-0.54-1.2-1.2-1.2H15.6v9.13h3.12C19.37,17.73,19.91,17.19,19.91,16.53z"/>
	</g>
	<g>
		<path class="st5" d="M24.45,8.83h-2.75v0.68h3.03l1-1c0.75,0.49,1.75,0.27,2.24-0.47c0.49-0.75,0.27-1.75-0.47-2.24
			s-1.75-0.27-2.24,0.47c-0.35,0.54-0.35,1.23,0,1.76L24.45,8.83z"/>
	</g>
	<g>
		<path class="st5" d="M19.71,5.98l2.66-2.72c0.75,0.5,1.77,0.3,2.27-0.45c0.5-0.75,0.3-1.77-0.45-2.27
			c-0.75-0.5-1.77-0.3-2.27,0.45c-0.36,0.54-0.37,1.24-0.02,1.79l-2.86,2.94v1.1h0.68L19.71,5.98L19.71,5.98z"/>
	</g>
	<g>
		<path class="st5" d="M16.33,4.08v2.73h0.68V4.08c0.71-0.19,1.13-0.91,0.94-1.62s-0.91-1.13-1.62-0.94
			c-0.71,0.19-1.13,0.91-0.94,1.62C15.51,3.6,15.87,3.96,16.33,4.08z"/>
	</g>
	<g>
		<path class="st5" d="M17.01,22.5v-2.98h-0.68v2.98c-0.71,0.19-1.13,0.91-0.94,1.62c0.19,0.71,0.91,1.13,1.62,0.94
			c0.71-0.19,1.13-0.91,0.94-1.62C17.83,22.98,17.47,22.63,17.01,22.5z"/>
	</g>
	<g>
		<path class="st5" d="M23.27,23.05c-0.32,0-0.64,0.09-0.9,0.27l-2.66-2.72v-1.08h-0.68v1.35l2.86,2.93
			c-0.48,0.76-0.25,1.76,0.51,2.24c0.76,0.48,1.76,0.25,2.24-0.51c0.48-0.76,0.25-1.76-0.51-2.24
			C23.88,23.14,23.58,23.05,23.27,23.05z"/>
	</g>
	<g>
		<path class="st5" d="M27.68,15.68c-0.33,0-0.66,0.1-0.94,0.28l-1.85-1.77h-3.18v0.68h2.91l1.65,1.58
			c-0.5,0.78-0.27,1.82,0.51,2.32c0.78,0.5,1.82,0.27,2.32-0.51c0.5-0.78,0.27-1.82-0.51-2.32C28.31,15.77,28,15.68,27.68,15.68
			L27.68,15.68z"/>
	</g>
	<g>
		<path class="st5" d="M24.63,11.5h-2.93v0.68h2.94c0.2,0.53,0.79,0.79,1.31,0.59c0.53-0.2,0.79-0.79,0.59-1.31
			c-0.2-0.53-0.79-0.79-1.31-0.59C24.95,10.98,24.73,11.21,24.63,11.5z"/>
	</g>
	<g>
		<path class="st5" d="M24.13,16.07c-0.5,0-0.94,0.33-1.08,0.81h-1.35v0.68h1.36c0.2,0.59,0.84,0.9,1.42,0.7
			c0.59-0.2,0.9-0.84,0.7-1.42C25.04,16.38,24.61,16.07,24.13,16.07z"/>
	</g>
	<g>
		<g>
			<path class="st5" d="M36.31,13.36V0.26h6.86c1.64,0,2.88,0.32,3.71,0.95c0.81,0.62,1.22,1.44,1.22,2.46c0,1.28-0.8,2.16-2.4,2.62
				v0.05c0.86,0.22,1.55,0.62,2.07,1.19c0.52,0.57,0.78,1.26,0.78,2.05c0,1.16-0.45,2.07-1.35,2.73c-0.93,0.7-2.21,1.04-3.86,1.04
				H36.31z M39.42,5.54h3.36c0.69,0,1.24-0.14,1.65-0.41c0.41-0.28,0.62-0.66,0.62-1.16c0-0.49-0.2-0.87-0.59-1.14
				c-0.39-0.27-0.93-0.4-1.62-0.4h-3.43V5.54z M39.42,7.5v3.67H43c0.74,0,1.33-0.16,1.76-0.49c0.43-0.32,0.64-0.75,0.64-1.29
				c0-0.6-0.23-1.06-0.7-1.39c-0.46-0.33-1.06-0.5-1.79-0.5H39.42z"/>
		</g>
		<g>
			<path class="st5" d="M63.14,11.74c-1.34,1.28-3.13,1.92-5.36,1.92c-2.23,0-4.02-0.64-5.37-1.92c-1.35-1.28-2.02-2.91-2.02-4.9
				c0-1.99,0.67-3.63,2.02-4.91C53.76,0.64,55.55,0,57.78,0c2.23,0,4.01,0.64,5.36,1.93c1.34,1.28,2.01,2.92,2.01,4.91
				C65.15,8.83,64.48,10.47,63.14,11.74z M54.66,10.17c0.74,0.87,1.78,1.3,3.14,1.3c1.36,0,2.39-0.43,3.11-1.29
				c0.71-0.86,1.07-1.98,1.07-3.35c0-1.37-0.36-2.49-1.07-3.35c-0.71-0.87-1.75-1.3-3.11-1.3c-1.36,0-2.4,0.43-3.14,1.3
				c-0.74,0.87-1.1,1.99-1.1,3.35C53.56,8.19,53.93,9.31,54.66,10.17z"/>
		</g>
		<g>
			<path class="st5" d="M73.46,13.66c-2.07,0-3.68-0.38-4.82-1.13c-1.14-0.75-1.74-1.82-1.8-3.22h3.04c0.1,0.78,0.42,1.34,0.97,1.69
				c0.55,0.34,1.37,0.51,2.47,0.51c0.87,0,1.59-0.14,2.14-0.41c0.56-0.27,0.84-0.7,0.84-1.27c0-0.21-0.03-0.39-0.1-0.56
				c-0.06-0.16-0.2-0.31-0.4-0.44c-0.2-0.13-0.37-0.23-0.51-0.31c-0.14-0.08-0.41-0.16-0.79-0.26c-0.39-0.09-0.68-0.16-0.88-0.2
				c-0.2-0.04-0.57-0.12-1.11-0.23c-0.66-0.13-1.2-0.25-1.62-0.35c-0.42-0.1-0.89-0.25-1.39-0.46C69,6.81,68.6,6.58,68.31,6.33
				c-0.29-0.25-0.54-0.58-0.74-0.99c-0.2-0.41-0.3-0.88-0.3-1.4c0-1.26,0.54-2.23,1.62-2.91c1.08-0.68,2.5-1.02,4.25-1.02
				c1.74,0,3.14,0.35,4.18,1.06c1.04,0.71,1.62,1.72,1.74,3.02h-2.98c-0.09-0.64-0.4-1.12-0.93-1.47c-0.54-0.34-1.21-0.51-2.02-0.51
				c-0.84,0-1.51,0.14-2.01,0.42c-0.5,0.28-0.75,0.65-0.75,1.12c0,0.5,0.25,0.87,0.74,1.1c0.49,0.23,1.36,0.46,2.6,0.7
				c0.74,0.13,1.35,0.26,1.82,0.38c0.47,0.12,0.98,0.28,1.53,0.49c0.55,0.21,0.98,0.45,1.29,0.71c0.31,0.26,0.56,0.6,0.77,1.02
				c0.21,0.42,0.31,0.91,0.31,1.46c0,1.3-0.55,2.31-1.65,3.04C76.67,13.29,75.23,13.66,73.46,13.66z"/>
		</g>
		<g>
			<path class="st5" d="M80.53,2.49V0.26h12.32v2.24h-4.61v10.87h-3.11V2.49H80.53z"/>
		</g>
		<g>
			<path class="st5" d="M106.44,11.74c-1.34,1.28-3.13,1.92-5.36,1.92c-2.23,0-4.02-0.64-5.37-1.92c-1.35-1.28-2.02-2.91-2.02-4.9
				c0-1.99,0.67-3.63,2.02-4.91C97.06,0.64,98.85,0,101.08,0c2.23,0,4.01,0.64,5.36,1.93c1.34,1.28,2.01,2.92,2.01,4.91
				C108.45,8.83,107.78,10.47,106.44,11.74z M97.96,10.17c0.74,0.87,1.78,1.3,3.14,1.3c1.36,0,2.39-0.43,3.11-1.29
				c0.71-0.86,1.07-1.98,1.07-3.35c0-1.37-0.36-2.49-1.07-3.35c-0.71-0.87-1.75-1.3-3.11-1.3c-1.36,0-2.4,0.43-3.14,1.3
				c-0.74,0.87-1.1,1.99-1.1,3.35C96.86,8.19,97.23,9.31,97.96,10.17z"/>
		</g>
		<g>
			<path class="st5" d="M110.83,13.36V0.26h3.15l5.1,7.31c0.14,0.21,0.3,0.46,0.48,0.77c0.18,0.31,0.32,0.56,0.42,0.77l0.17,0.29
				h0.04c-0.06-0.9-0.09-1.66-0.09-2.27V0.26h3.06v13.11h-3l-5.23-7.24c-0.14-0.21-0.31-0.46-0.49-0.76
				c-0.19-0.3-0.33-0.55-0.43-0.76l-0.17-0.29h-0.04c0.06,0.92,0.09,1.68,0.09,2.29v6.76H110.83z"/>
		</g>
	</g>
	<g>
		<path class="st1" d="M47.9,26.44l-0.05-0.82h-0.02c-0.44,0.63-1.1,0.94-2,0.94c-1.04,0-1.87-0.29-2.49-0.88
			c-0.62-0.59-0.92-1.34-0.92-2.26c0-1.04,0.39-1.87,1.16-2.48c0.6-0.46,1.36-0.7,2.28-0.7c0.87,0,1.56,0.18,2.08,0.55
			c0.52,0.37,0.84,0.86,0.96,1.48h-1.41c-0.09-0.31-0.26-0.55-0.54-0.74c-0.27-0.18-0.63-0.28-1.06-0.28c-0.64,0-1.14,0.2-1.48,0.6
			c-0.35,0.4-0.52,0.92-0.52,1.56c0,0.63,0.18,1.14,0.54,1.55c0.36,0.4,0.84,0.6,1.45,0.6c0.53,0,0.97-0.14,1.31-0.42
			c0.34-0.28,0.52-0.6,0.52-0.96v-0.03h-1.71v-0.95h2.99v3.23H47.9z"/>
		<path class="st1" d="M50.24,26.44l2.47-6.08h1.49l2.5,6.08h-1.5l-0.48-1.29h-2.56l-0.47,1.29H50.24z M53.14,22.45L52.5,24.2h1.88
			l-0.64-1.75l-0.29-0.93h-0.02C53.32,21.92,53.22,22.24,53.14,22.45z"/>
		<path class="st1" d="M58.08,26.44v-6.08h1.44v5.05h3.34v1.03H58.08z"/>
		<path class="st1" d="M63.93,26.44l2.47-6.08h1.49l2.5,6.08h-1.5l-0.48-1.29h-2.56l-0.47,1.29H63.93z M66.83,22.45L66.2,24.2h1.88
			l-0.64-1.75l-0.29-0.93h-0.02C67.01,21.92,66.91,22.24,66.83,22.45z"/>
		<path class="st1" d="M72.89,26.44l-2.39-6.08h1.51l1.25,3.52l0.31,0.97h0.02c0.11-0.38,0.22-0.71,0.31-0.97l1.24-3.52h1.46
			l-2.39,6.08H72.89z"/>
		<path class="st1" d="M77.94,26.44v-6.08h5.22v1.04h-3.78v1.36h3.32v1.01h-3.32v1.64h3.81v1.03H77.94z"/>
		<path class="st1" d="M84.86,26.44v-6.08h3.26c0.68,0,1.23,0.16,1.65,0.47c0.42,0.31,0.63,0.72,0.63,1.22
			c0,0.78-0.43,1.27-1.3,1.47v0.03c0.34,0.08,0.59,0.22,0.76,0.4c0.17,0.18,0.28,0.46,0.32,0.82c0.01,0.14,0.03,0.3,0.04,0.48
			c0.02,0.18,0.03,0.33,0.04,0.44c0.01,0.11,0.02,0.22,0.04,0.32c0.02,0.11,0.04,0.19,0.07,0.25c0.03,0.06,0.07,0.1,0.11,0.11v0.06
			h-1.38c-0.03-0.01-0.05-0.03-0.07-0.06c-0.02-0.03-0.04-0.07-0.05-0.13c-0.01-0.06-0.02-0.12-0.03-0.17
			c-0.01-0.06-0.02-0.14-0.03-0.23c-0.01-0.09-0.02-0.18-0.03-0.25c-0.01-0.07-0.01-0.16-0.02-0.28c-0.01-0.12-0.02-0.21-0.03-0.28
			C88.79,24.34,88.33,24,87.46,24H86.3v2.44H84.86z M86.3,21.35v1.69h1.53c0.38,0,0.67-0.08,0.87-0.23s0.3-0.35,0.3-0.6
			c0-0.25-0.1-0.46-0.29-0.62s-0.47-0.24-0.84-0.24H86.3z"/>
		<path class="st1" d="M94.85,26.57c-0.96,0-1.7-0.17-2.23-0.52c-0.53-0.35-0.81-0.85-0.83-1.49h1.41c0.05,0.36,0.2,0.62,0.45,0.78
			c0.26,0.16,0.64,0.24,1.15,0.24c0.4,0,0.73-0.06,0.99-0.19c0.26-0.13,0.39-0.32,0.39-0.59c0-0.1-0.01-0.18-0.04-0.26
			c-0.03-0.08-0.09-0.14-0.18-0.2c-0.09-0.06-0.17-0.11-0.24-0.14c-0.07-0.04-0.19-0.08-0.37-0.12c-0.18-0.04-0.31-0.07-0.41-0.09
			c-0.09-0.02-0.27-0.06-0.52-0.11c-0.3-0.06-0.55-0.12-0.75-0.16c-0.2-0.05-0.41-0.12-0.65-0.21c-0.23-0.1-0.42-0.2-0.56-0.32
			s-0.25-0.27-0.34-0.46c-0.09-0.19-0.14-0.41-0.14-0.65c0-0.58,0.25-1.03,0.75-1.35c0.5-0.31,1.16-0.47,1.97-0.47
			c0.81,0,1.45,0.16,1.94,0.49c0.48,0.33,0.75,0.8,0.8,1.4h-1.38c-0.04-0.29-0.18-0.52-0.43-0.68c-0.25-0.16-0.56-0.24-0.94-0.24
			c-0.39,0-0.7,0.07-0.93,0.2c-0.23,0.13-0.35,0.3-0.35,0.52c0,0.23,0.11,0.4,0.34,0.51c0.23,0.11,0.63,0.22,1.21,0.32
			c0.34,0.06,0.63,0.12,0.84,0.17c0.22,0.05,0.46,0.13,0.71,0.23c0.25,0.1,0.45,0.21,0.6,0.33c0.14,0.12,0.26,0.28,0.36,0.47
			c0.1,0.2,0.14,0.42,0.14,0.68c0,0.6-0.25,1.07-0.77,1.41C96.34,26.4,95.67,26.57,94.85,26.57z"/>
		<path class="st1" d="M99.25,26.44v-6.08h5.22v1.04h-3.78v1.36h3.32v1.01h-3.32v1.64h3.81v1.03H99.25z"/>
		<path class="st1" d="M107.78,26.44l2.47-6.08h1.49l2.5,6.08h-1.5l-0.48-1.29h-2.56l-0.47,1.29H107.78z M110.68,22.45l-0.64,1.75
			h1.88l-0.64-1.75L111,21.52h-0.02C110.86,21.92,110.76,22.24,110.68,22.45z"/>
		<path class="st1" d="M115.63,26.44v-6.08h1.44v6.08H115.63z"/>
	</g>
</g>
</svg>
