<svg xmlns="http://www.w3.org/2000/svg" xmlns:xlink="http://www.w3.org/1999/xlink" width="2000" zoomAndPan="magnify" viewBox="0 0 1500 1499.999933" height="2000" preserveAspectRatio="xMidYMid meet" version="1.0"><defs><g/></defs><rect x="-150" width="1800" fill="#ffffff" y="-149.999993" height="1799.99992" fill-opacity="1"/><rect x="-150" width="1800" fill="#007a33" y="-149.999993" height="1799.99992" fill-opacity="1"/><g fill="#ffffff" fill-opacity="1"><g transform="translate(235.368111, 686.93743)"><g><path d="M 202.015625 -362.59375 C 237.242188 -362.59375 263.835938 -354.820312 281.796875 -339.28125 C 299.753906 -323.75 308.734375 -301.132812 308.734375 -271.4375 C 308.734375 -255.207031 304.847656 -240.703125 297.078125 -227.921875 C 289.304688 -215.140625 277.820312 -205.125 262.625 -197.875 C 274.019531 -194.070312 284.640625 -188.285156 294.484375 -180.515625 C 304.328125 -172.753906 312.351562 -162.828125 318.5625 -150.734375 C 324.78125 -138.648438 327.890625 -123.972656 327.890625 -106.703125 C 327.890625 -85.640625 324.265625 -68.203125 317.015625 -54.390625 C 309.765625 -40.578125 300.265625 -29.695312 288.515625 -21.75 C 276.773438 -13.8125 263.828125 -8.203125 249.671875 -4.921875 C 235.515625 -1.640625 221.359375 0 207.203125 0 L 50.765625 0 L 50.765625 -362.59375 Z M 192.703125 -308.734375 L 106.703125 -308.734375 L 106.703125 -212.375 L 198.90625 -212.375 C 213.070312 -212.71875 225.59375 -217.035156 236.46875 -225.328125 C 247.34375 -233.617188 252.78125 -245.359375 252.78125 -260.546875 C 252.78125 -277.816406 246.992188 -290.164062 235.421875 -297.59375 C 223.859375 -305.019531 209.617188 -308.734375 192.703125 -308.734375 Z M 201.5 -158.515625 L 106.703125 -158.515625 L 106.703125 -53.875 L 204.09375 -53.875 C 223.78125 -53.875 239.835938 -58.273438 252.265625 -67.078125 C 264.691406 -75.890625 270.90625 -89.445312 270.90625 -107.75 C 270.90625 -120.863281 267.28125 -131.046875 260.03125 -138.296875 C 252.78125 -145.554688 243.890625 -150.738281 233.359375 -153.84375 C 222.828125 -156.957031 212.207031 -158.515625 201.5 -158.515625 Z M 201.5 -158.515625 "/></g></g></g><g fill="#ffffff" fill-opacity="1"><g transform="translate(562.222058, 686.93743)"><g><path d="M 380.21875 -181.296875 C 380.21875 -155.054688 375.898438 -130.625 367.265625 -108 C 358.628906 -85.382812 346.28125 -65.613281 330.21875 -48.6875 C 314.164062 -31.769531 295.347656 -18.5625 273.765625 -9.0625 C 252.179688 0.4375 228.4375 5.1875 202.53125 5.1875 C 176.632812 5.1875 152.804688 0.4375 131.046875 -9.0625 C 109.296875 -18.5625 90.476562 -31.769531 74.59375 -48.6875 C 58.707031 -65.613281 46.445312 -85.382812 37.8125 -108 C 29.175781 -130.625 24.859375 -155.054688 24.859375 -181.296875 C 24.859375 -207.546875 29.175781 -231.976562 37.8125 -254.59375 C 46.445312 -277.21875 58.707031 -296.988281 74.59375 -313.90625 C 90.476562 -330.832031 109.296875 -344.039062 131.046875 -353.53125 C 152.804688 -363.03125 176.632812 -367.78125 202.53125 -367.78125 C 228.4375 -367.78125 252.179688 -363.03125 273.765625 -353.53125 C 295.347656 -344.039062 314.164062 -330.832031 330.21875 -313.90625 C 346.28125 -296.988281 358.628906 -277.21875 367.265625 -254.59375 C 375.898438 -231.976562 380.21875 -207.546875 380.21875 -181.296875 Z M 323.234375 -181.296875 C 323.234375 -206.503906 318.050781 -229.035156 307.6875 -248.890625 C 297.332031 -268.753906 283.085938 -284.46875 264.953125 -296.03125 C 246.828125 -307.601562 226.019531 -313.390625 202.53125 -313.390625 C 178.707031 -313.390625 157.726562 -307.601562 139.59375 -296.03125 C 121.46875 -284.46875 107.3125 -268.753906 97.125 -248.890625 C 86.9375 -229.035156 81.84375 -206.503906 81.84375 -181.296875 C 81.84375 -156.085938 86.9375 -133.554688 97.125 -113.703125 C 107.3125 -93.847656 121.46875 -78.132812 139.59375 -66.5625 C 157.726562 -54.988281 178.707031 -49.203125 202.53125 -49.203125 C 226.019531 -49.203125 246.828125 -54.988281 264.953125 -66.5625 C 283.085938 -78.132812 297.332031 -93.929688 307.6875 -113.953125 C 318.050781 -133.984375 323.234375 -156.429688 323.234375 -181.296875 Z M 323.234375 -181.296875 "/></g></g></g><g fill="#ffffff" fill-opacity="1"><g transform="translate(941.393353, 686.93743)"><g><path d="M 64.234375 -109.296875 C 78.390625 -88.921875 93.148438 -73.117188 108.515625 -61.890625 C 123.890625 -50.671875 143.832031 -45.0625 168.34375 -45.0625 C 180.09375 -45.0625 191.316406 -46.960938 202.015625 -50.765625 C 212.722656 -54.566406 221.53125 -60.09375 228.4375 -67.34375 C 235.34375 -74.59375 238.796875 -83.222656 238.796875 -93.234375 C 238.796875 -110.503906 231.457031 -123.972656 216.78125 -133.640625 C 202.101562 -143.304688 181.46875 -150.734375 154.875 -155.921875 C 121.039062 -162.828125 94.109375 -174.828125 74.078125 -191.921875 C 54.046875 -209.015625 44.03125 -233.789062 44.03125 -266.25 C 44.03125 -286.96875 49.8125 -304.925781 61.375 -320.125 C 72.945312 -335.320312 88.226562 -347.0625 107.21875 -355.34375 C 126.21875 -363.632812 146.769531 -367.78125 168.875 -367.78125 C 197.53125 -367.78125 222.21875 -362.253906 242.9375 -351.203125 C 263.65625 -340.148438 279.890625 -324.4375 291.640625 -304.0625 L 252.265625 -265.21875 C 242.941406 -280.757812 231.195312 -293.363281 217.03125 -303.03125 C 202.875 -312.695312 186.300781 -317.53125 167.3125 -317.53125 C 148.320312 -317.53125 132.347656 -313.125 119.390625 -304.3125 C 106.441406 -295.507812 99.96875 -283.34375 99.96875 -267.8125 C 99.96875 -250.195312 106.785156 -237.332031 120.421875 -229.21875 C 134.066406 -221.101562 152.113281 -214.628906 174.5625 -209.796875 C 194.9375 -205.648438 214.273438 -199.257812 232.578125 -190.625 C 250.878906 -181.988281 265.8125 -170.847656 277.375 -157.203125 C 288.945312 -143.566406 294.734375 -127.082031 294.734375 -107.75 C 294.734375 -73.207031 282.992188 -45.75 259.515625 -25.375 C 236.035156 -5 203.75 5.1875 162.65625 5.1875 C 134.675781 5.1875 109.203125 -0.335938 86.234375 -11.390625 C 63.273438 -22.441406 43.164062 -40.398438 25.90625 -65.265625 Z M 64.234375 -109.296875 "/></g></g></g><g fill="#ffffff" fill-opacity="1"><g transform="translate(226.743112, 1184.937387)"><g><path d="M 215.25 -370.65625 C 236.25 -370.65625 255.671875 -367.675781 273.515625 -361.71875 C 291.367188 -355.769531 307.117188 -348.070312 320.765625 -338.625 C 334.421875 -329.175781 345.097656 -319.023438 352.796875 -308.171875 L 316.046875 -269.84375 C 302.046875 -283.144531 286.644531 -294.082031 269.84375 -302.65625 C 253.050781 -311.238281 234.851562 -315.53125 215.25 -315.53125 C 190.394531 -315.53125 167.90625 -309.753906 147.78125 -298.203125 C 127.65625 -286.648438 111.816406 -270.984375 100.265625 -251.203125 C 88.722656 -231.429688 82.953125 -208.945312 82.953125 -183.75 C 82.953125 -158.894531 89.078125 -136.316406 101.328125 -116.015625 C 113.578125 -95.722656 129.9375 -79.625 150.40625 -67.71875 C 170.882812 -55.820312 193.195312 -49.875 217.34375 -49.875 C 234.84375 -49.875 251.289062 -53.285156 266.6875 -60.109375 C 282.09375 -66.929688 294.609375 -76.289062 304.234375 -88.1875 C 313.859375 -100.09375 318.671875 -113.75 318.671875 -129.15625 C 318.671875 -130.90625 318.671875 -131.953125 318.671875 -132.296875 L 214.203125 -132.296875 L 214.203125 -188.46875 L 376.953125 -188.46875 C 377.648438 -183.21875 378.257812 -177.96875 378.78125 -172.71875 C 379.3125 -167.46875 379.578125 -162.21875 379.578125 -156.96875 C 379.578125 -137.71875 376.6875 -118.816406 370.90625 -100.265625 C 365.132812 -81.722656 356.125 -65.625 343.875 -51.96875 C 329.875 -34.46875 311.757812 -20.554688 289.53125 -10.234375 C 267.3125 0.0859375 242.726562 5.25 215.78125 5.25 C 189.175781 5.25 164.320312 0.4375 141.21875 -9.1875 C 118.125 -18.8125 97.828125 -32.195312 80.328125 -49.34375 C 62.828125 -66.5 49.265625 -86.535156 39.640625 -109.453125 C 30.015625 -132.378906 25.203125 -157.144531 25.203125 -183.75 C 25.203125 -210.351562 30.015625 -234.941406 39.640625 -257.515625 C 49.265625 -280.085938 62.738281 -299.859375 80.0625 -316.828125 C 97.382812 -333.804688 117.59375 -347.019531 140.6875 -356.46875 C 163.789062 -365.925781 188.644531 -370.65625 215.25 -370.65625 Z M 215.25 -370.65625 "/></g></g></g><g fill="#ffffff" fill-opacity="1"><g transform="translate(628.892357, 1184.937387)"><g><path d="M 294 0 L 259.34375 -91.34375 L 105.53125 -91.34375 L 70.875 0 L 13.125 0 L 155.40625 -367.5 L 213.15625 -367.5 L 354.375 0 Z M 154.34375 -219.453125 L 126.53125 -145.953125 L 238.875 -145.953125 L 210 -221.546875 C 205.445312 -233.796875 200.894531 -247.007812 196.34375 -261.1875 C 191.800781 -275.363281 187.253906 -289.625 182.703125 -303.96875 C 177.796875 -289.269531 172.976562 -274.570312 168.25 -259.875 C 163.53125 -245.175781 158.894531 -231.703125 154.34375 -219.453125 Z M 154.34375 -219.453125 "/></g></g></g><g fill="#ffffff" fill-opacity="1"><g transform="translate(996.391733, 1184.937387)"><g><path d="M 213.15625 0 L 37.796875 0 L 37.796875 -52.5 L 97.125 -52.5 L 97.125 -315 L 37.796875 -315 L 37.796875 -367.5 L 213.15625 -367.5 L 213.15625 -315 L 153.828125 -315 L 153.828125 -52.5 L 213.15625 -52.5 Z M 213.15625 0 "/></g></g></g></svg>