<svg xmlns="http://www.w3.org/2000/svg" xmlns:xlink="http://www.w3.org/1999/xlink" width="2000" zoomAndPan="magnify" viewBox="0 0 1500 1499.999933" height="2000" preserveAspectRatio="xMidYMid meet" version="1.0"><defs><g/></defs><rect x="-150" width="1800" fill="#ffffff" y="-149.999993" height="1799.99992" fill-opacity="1"/><rect x="-150" width="1800" fill="#007a33" y="-149.999993" height="1799.99992" fill-opacity="1"/><g fill="#ffffff" fill-opacity="1"><g transform="translate(207.773537, 687.937656)"><g><path d="M 208.65625 -374.5 C 245.03125 -374.5 272.488281 -366.472656 291.03125 -350.421875 C 309.582031 -334.367188 318.859375 -311.007812 318.859375 -280.34375 C 318.859375 -263.570312 314.84375 -248.585938 306.8125 -235.390625 C 298.789062 -222.203125 286.9375 -211.863281 271.25 -204.375 C 283.019531 -200.445312 293.984375 -194.46875 304.140625 -186.4375 C 314.304688 -178.414062 322.597656 -168.160156 329.015625 -155.671875 C 335.441406 -143.191406 338.65625 -128.035156 338.65625 -110.203125 C 338.65625 -88.453125 334.910156 -70.441406 327.421875 -56.171875 C 319.929688 -41.910156 310.125 -30.675781 298 -22.46875 C 285.875 -14.269531 272.5 -8.472656 257.875 -5.078125 C 243.25 -1.691406 228.625 0 214 0 L 52.4375 0 L 52.4375 -374.5 Z M 199.015625 -318.859375 L 110.203125 -318.859375 L 110.203125 -219.34375 L 205.4375 -219.34375 C 220.0625 -219.707031 232.988281 -224.164062 244.21875 -232.71875 C 255.457031 -241.28125 261.078125 -253.410156 261.078125 -269.109375 C 261.078125 -286.941406 255.101562 -299.691406 243.15625 -307.359375 C 231.207031 -315.023438 216.492188 -318.859375 199.015625 -318.859375 Z M 208.109375 -163.703125 L 110.203125 -163.703125 L 110.203125 -55.640625 L 210.796875 -55.640625 C 231.117188 -55.640625 247.703125 -60.1875 260.546875 -69.28125 C 273.390625 -78.375 279.8125 -92.375 279.8125 -111.28125 C 279.8125 -124.832031 276.0625 -135.351562 268.5625 -142.84375 C 261.070312 -150.332031 251.890625 -155.679688 241.015625 -158.890625 C 230.140625 -162.097656 219.171875 -163.703125 208.109375 -163.703125 Z M 208.109375 -163.703125 "/></g></g></g><g fill="#ffffff" fill-opacity="1"><g transform="translate(556.056085, 687.937656)"><g><path d="M 392.6875 -187.25 C 392.6875 -160.144531 388.226562 -134.910156 379.3125 -111.546875 C 370.394531 -88.179688 357.644531 -67.757812 341.0625 -50.28125 C 324.476562 -32.8125 305.039062 -19.171875 282.75 -9.359375 C 260.457031 0.441406 235.9375 5.34375 209.1875 5.34375 C 182.4375 5.34375 157.828125 0.441406 135.359375 -9.359375 C 112.890625 -19.171875 93.453125 -32.8125 77.046875 -50.28125 C 60.640625 -67.757812 47.976562 -88.179688 39.0625 -111.546875 C 30.144531 -134.910156 25.6875 -160.144531 25.6875 -187.25 C 25.6875 -214.351562 30.144531 -239.585938 39.0625 -262.953125 C 47.976562 -286.316406 60.640625 -306.734375 77.046875 -324.203125 C 93.453125 -341.679688 112.890625 -355.320312 135.359375 -365.125 C 157.828125 -374.9375 182.4375 -379.84375 209.1875 -379.84375 C 235.9375 -379.84375 260.457031 -374.9375 282.75 -365.125 C 305.039062 -355.320312 324.476562 -341.679688 341.0625 -324.203125 C 357.644531 -306.734375 370.394531 -286.316406 379.3125 -262.953125 C 388.226562 -239.585938 392.6875 -214.351562 392.6875 -187.25 Z M 333.84375 -187.25 C 333.84375 -213.289062 328.488281 -236.5625 317.78125 -257.0625 C 307.082031 -277.570312 292.367188 -293.800781 273.640625 -305.75 C 254.921875 -317.695312 233.4375 -323.671875 209.1875 -323.671875 C 184.570312 -323.671875 162.898438 -317.695312 144.171875 -305.75 C 125.453125 -293.800781 110.832031 -277.570312 100.3125 -257.0625 C 89.789062 -236.5625 84.53125 -213.289062 84.53125 -187.25 C 84.53125 -161.207031 89.789062 -137.929688 100.3125 -117.421875 C 110.832031 -96.921875 125.453125 -80.695312 144.171875 -68.75 C 162.898438 -56.800781 184.570312 -50.828125 209.1875 -50.828125 C 233.4375 -50.828125 254.921875 -56.800781 273.640625 -68.75 C 292.367188 -80.695312 307.082031 -97.015625 317.78125 -117.703125 C 328.488281 -138.390625 333.84375 -161.570312 333.84375 -187.25 Z M 333.84375 -187.25 "/></g></g></g><g fill="#ffffff" fill-opacity="1"><g transform="translate(958.373278, 687.937656)"><g><path d="M 66.34375 -112.890625 C 80.96875 -91.835938 96.210938 -75.515625 112.078125 -63.921875 C 127.953125 -52.335938 148.550781 -46.546875 173.875 -46.546875 C 186 -46.546875 197.585938 -48.503906 208.640625 -52.421875 C 219.703125 -56.347656 228.800781 -62.054688 235.9375 -69.546875 C 243.070312 -77.035156 246.640625 -85.953125 246.640625 -96.296875 C 246.640625 -114.128906 239.054688 -128.039062 223.890625 -138.03125 C 208.734375 -148.019531 187.425781 -155.6875 159.96875 -161.03125 C 125.007812 -168.164062 97.1875 -180.5625 76.5 -198.21875 C 55.8125 -215.875 45.46875 -241.460938 45.46875 -274.984375 C 45.46875 -296.390625 51.441406 -314.9375 63.390625 -330.625 C 75.335938 -346.320312 91.117188 -358.445312 110.734375 -367 C 130.359375 -375.5625 151.582031 -379.84375 174.40625 -379.84375 C 204.007812 -379.84375 229.507812 -374.132812 250.90625 -362.71875 C 272.3125 -351.3125 289.078125 -335.085938 301.203125 -314.046875 L 260.546875 -273.921875 C 250.910156 -289.972656 238.78125 -302.988281 224.15625 -312.96875 C 209.539062 -322.957031 192.425781 -327.953125 172.8125 -327.953125 C 153.1875 -327.953125 136.6875 -323.40625 123.3125 -314.3125 C 109.9375 -305.21875 103.25 -292.644531 103.25 -276.59375 C 103.25 -258.40625 110.289062 -245.117188 124.375 -236.734375 C 138.46875 -228.359375 157.109375 -221.671875 180.296875 -216.671875 C 201.335938 -212.390625 221.304688 -205.789062 240.203125 -196.875 C 259.109375 -187.957031 274.535156 -176.453125 286.484375 -162.359375 C 298.441406 -148.273438 304.421875 -131.25 304.421875 -111.28125 C 304.421875 -75.613281 292.289062 -47.257812 268.03125 -26.21875 C 243.78125 -5.175781 210.429688 5.34375 167.984375 5.34375 C 139.097656 5.34375 112.796875 -0.359375 89.078125 -11.765625 C 65.359375 -23.179688 44.582031 -41.726562 26.75 -67.40625 Z M 66.34375 -112.890625 "/></g></g></g><g fill="#ffffff" fill-opacity="1"><g transform="translate(207.3751, 1208.437611)"><g><path d="M 225.5 -388.296875 C 247.5 -388.296875 267.847656 -385.175781 286.546875 -378.9375 C 305.242188 -372.707031 321.742188 -364.644531 336.046875 -354.75 C 350.347656 -344.851562 361.53125 -334.21875 369.59375 -322.84375 L 331.09375 -282.703125 C 316.425781 -296.628906 300.289062 -308.082031 282.6875 -317.0625 C 265.09375 -326.050781 246.03125 -330.546875 225.5 -330.546875 C 199.46875 -330.546875 175.910156 -324.492188 154.828125 -312.390625 C 133.742188 -300.296875 117.148438 -283.890625 105.046875 -263.171875 C 92.953125 -242.453125 86.90625 -218.894531 86.90625 -192.5 C 86.90625 -166.46875 93.320312 -142.816406 106.15625 -121.546875 C 118.988281 -100.285156 136.128906 -83.421875 157.578125 -70.953125 C 179.023438 -58.484375 202.398438 -52.25 227.703125 -52.25 C 246.035156 -52.25 263.265625 -55.820312 279.390625 -62.96875 C 295.523438 -70.125 308.632812 -79.929688 318.71875 -92.390625 C 328.800781 -104.859375 333.84375 -119.160156 333.84375 -135.296875 C 333.84375 -137.128906 333.84375 -138.226562 333.84375 -138.59375 L 224.40625 -138.59375 L 224.40625 -197.453125 L 394.90625 -197.453125 C 395.632812 -191.953125 396.273438 -186.453125 396.828125 -180.953125 C 397.378906 -175.453125 397.65625 -169.953125 397.65625 -164.453125 C 397.65625 -144.285156 394.628906 -124.484375 388.578125 -105.046875 C 382.523438 -85.617188 373.082031 -68.753906 360.25 -54.453125 C 345.582031 -36.117188 326.609375 -21.539062 303.328125 -10.71875 C 280.046875 0.09375 254.285156 5.5 226.046875 5.5 C 198.179688 5.5 172.148438 0.457031 147.953125 -9.625 C 123.753906 -19.707031 102.488281 -33.734375 84.15625 -51.703125 C 65.820312 -69.671875 51.613281 -90.660156 41.53125 -114.671875 C 31.445312 -138.691406 26.40625 -164.632812 26.40625 -192.5 C 26.40625 -220.363281 31.445312 -246.117188 41.53125 -269.765625 C 51.613281 -293.421875 65.726562 -314.140625 83.875 -331.921875 C 102.019531 -349.703125 123.191406 -363.539062 147.390625 -373.4375 C 171.597656 -383.34375 197.632812 -388.296875 225.5 -388.296875 Z M 225.5 -388.296875 "/></g></g></g><g fill="#ffffff" fill-opacity="1"><g transform="translate(628.672414, 1208.437611)"><g><path d="M 308 0 L 271.703125 -95.703125 L 110.546875 -95.703125 L 74.25 0 L 13.75 0 L 162.796875 -385 L 223.296875 -385 L 371.25 0 Z M 161.703125 -229.90625 L 132.546875 -152.90625 L 250.25 -152.90625 L 220 -232.09375 C 215.226562 -244.925781 210.457031 -258.769531 205.6875 -273.625 C 200.925781 -288.476562 196.164062 -303.421875 191.40625 -318.453125 C 186.269531 -303.046875 181.222656 -287.644531 176.265625 -272.25 C 171.316406 -256.851562 166.460938 -242.738281 161.703125 -229.90625 Z M 161.703125 -229.90625 "/></g></g></g><g fill="#ffffff" fill-opacity="1"><g transform="translate(1013.670075, 1208.437611)"><g><path d="M 223.296875 0 L 39.59375 0 L 39.59375 -55 L 101.75 -55 L 101.75 -330 L 39.59375 -330 L 39.59375 -385 L 223.296875 -385 L 223.296875 -330 L 161.15625 -330 L 161.15625 -55 L 223.296875 -55 Z M 223.296875 0 "/></g></g></g></svg>